<?xml version="1.0" encoding="UTF-8"?>
<svg width="594px" height="349px" viewBox="0 0 594 349" version="1.1" xmlns="http://www.w3.org/2000/svg" xmlns:xlink="http://www.w3.org/1999/xlink">
    <!-- Generator: sketchtool 51.1 (57501) - http://www.bohemiancoding.com/sketch -->
    <title>44DA574A-2997-4622-99F9-C7384CD9CDEA</title>
    <desc>Created with sketchtool.</desc>
    <defs>
        <linearGradient x1="50%" y1="37.8851569%" x2="50%" y2="117.341997%" id="linearGradient-1">
            <stop stop-color="#B77EFF" offset="0%"></stop>
            <stop stop-color="#8048FF" offset="100%"></stop>
        </linearGradient>
        <filter x="-4.5%" y="-4.9%" width="109.0%" height="112.7%" filterUnits="objectBoundingBox" id="filter-2">
            <feOffset dx="0" dy="2" in="SourceAlpha" result="shadowOffsetOuter1"></feOffset>
            <feGaussianBlur stdDeviation="2.5" in="shadowOffsetOuter1" result="shadowBlurOuter1"></feGaussianBlur>
            <feColorMatrix values="0 0 0 0 0   0 0 0 0 0   0 0 0 0 0  0 0 0 0.274371603 0" type="matrix" in="shadowBlurOuter1" result="shadowMatrixOuter1"></feColorMatrix>
            <feMerge>
                <feMergeNode in="shadowMatrixOuter1"></feMergeNode>
                <feMergeNode in="SourceGraphic"></feMergeNode>
            </feMerge>
        </filter>
        <polygon id="path-3" points="117.711491 0 210.745062 63.0954474 93.0093062 94.6917808 0 31.5963334"></polygon>
        <filter x="-6.2%" y="-11.6%" width="112.3%" height="127.5%" filterUnits="objectBoundingBox" id="filter-4">
            <feOffset dx="0" dy="2" in="SourceAlpha" result="shadowOffsetOuter1"></feOffset>
            <feGaussianBlur stdDeviation="4" in="shadowOffsetOuter1" result="shadowBlurOuter1"></feGaussianBlur>
            <feColorMatrix values="0 0 0 0 0   0 0 0 0 0   0 0 0 0 0  0 0 0 0.144729393 0" type="matrix" in="shadowBlurOuter1"></feColorMatrix>
        </filter>
        <filter x="-10.6%" y="-17.5%" width="121.9%" height="148.0%" filterUnits="objectBoundingBox" id="filter-5">
            <feOffset dx="0" dy="2" in="SourceAlpha" result="shadowOffsetOuter1"></feOffset>
            <feGaussianBlur stdDeviation="2.5" in="shadowOffsetOuter1" result="shadowBlurOuter1"></feGaussianBlur>
            <feColorMatrix values="0 0 0 0 0   0 0 0 0 0   0 0 0 0 0  0 0 0 0.1 0" type="matrix" in="shadowBlurOuter1" result="shadowMatrixOuter1"></feColorMatrix>
            <feMerge>
                <feMergeNode in="shadowMatrixOuter1"></feMergeNode>
                <feMergeNode in="SourceGraphic"></feMergeNode>
            </feMerge>
        </filter>
    </defs>
    <g id="Page-5" stroke="none" stroke-width="1" fill="none" fill-rule="evenodd">
        <g id="Dkube_3" transform="translate(-667.000000, -301.000000)">
            <g id="Group-14" transform="translate(667.000000, 301.000000)">
                <g id="Group-9" transform="translate(0.000000, 128.253425)" fill-rule="nonzero">
                    <polyline id="Path-10-Copy" stroke="url(#linearGradient-1)" stroke-width="3.6" stroke-linecap="round" points="93.6 59.9315068 130.8 50.3424658 201.6 97.0890411 224.4 89.8972603"></polyline>
                    <g id="Asset-38-Copy-11">
                        <polygon id="Shape" fill="#ECEFF1" points="59.424 0 105.432 31.1164384 47.208 46.6986301 1.212 15.5821918"></polygon>
                        <polygon id="Shape" fill="#B0BEC5" points="105.432 31.1164384 104.22 93.7688356 46.008 109.351027 47.208 46.6986301"></polygon>
                        <polygon id="Shape" fill="#CFD8DC" points="47.208 46.6986301 46.008 109.351027 0 78.234589 1.212 15.5821918"></polygon>
                    </g>
                </g>
                <g id="Asset-52" transform="translate(24.000000, 137.842466)" fill="#9F9F9F" fill-rule="nonzero">
                    <path d="M49.3994167,4.42714024 C50.2025893,4.55362347 50.7826584,4.85402115 50.8942102,5.1965799 C51.0057619,5.53913865 50.6209084,5.8816974 49.9125548,6.06088198 C49.0088717,6.27988825 48.0562434,6.2358009 47.1795368,5.93439875 L37.0060169,8.51149458 C38.7992139,8.25361381 40.6293783,8.3468945 42.3828114,8.78554159 L45.2775794,8.05299287 C44.9485017,7.65246264 45.3277777,7.2203116 46.1699934,6.99896594 L46.4154073,6.9462646 C47.3777236,6.75248002 48.3814134,6.88104009 49.2543994,7.30990389 C49.8679341,7.69989385 49.6950288,8.21109691 48.8360803,8.49568418 L48.6073992,8.56419593 C47.7092333,8.77873307 46.7638835,8.73654722 45.891114,8.44298283 L43.2752254,9.1070198 C44.268036,9.49173963 44.9485017,9.99767255 45.1325621,10.5457666 L51.6639173,8.89094428 C51.802374,8.8580533 51.9459901,8.8491257 52.0878139,8.8645936 C52.2101713,8.87393151 52.3285566,8.91001525 52.4336244,8.9699963 L57.0184014,11.9001912 C58.0837207,11.7631677 59.2494365,11.973973 59.7625746,12.3955838 C60.2757126,12.8171946 59.9299022,13.3125872 58.9872899,13.5550134 C58.0122951,13.7906897 56.9819963,13.7128092 56.0590564,13.3336678 C55.33397,12.9700285 55.3618579,12.4482852 56.131565,12.1268069 L51.8758656,9.38633693 L45.2329587,11.0780502 C45.1492949,11.8685703 44.1509067,12.5800385 42.5445614,12.9858389 L40.8712851,13.4127198 L43.9612687,15.3890203 C45.0210104,15.2572669 46.1923038,15.4733424 46.6831315,15.9160337 C47.1739592,16.3587251 46.8393039,16.827767 45.9022692,17.0649231 C44.9303299,17.30352 43.9019621,17.2293458 42.9796133,16.8541177 C42.2489493,16.4904784 42.2712596,15.9740052 43.0298116,15.6472569 L39.939828,13.6709564 L37.1510342,14.3771544 L42.6840011,17.9186849 C43.7437428,17.7869315 44.9150362,18.0030071 45.4058639,18.4456984 C45.8966916,18.8883897 45.5620364,19.3574317 44.619424,19.5945877 C43.6491208,19.8307696 42.6233509,19.7566414 41.7023457,19.3837823 C40.9716817,19.0201431 40.9939921,18.5036699 41.752544,18.1769215 L36.2028442,14.5774196 L33.4140504,15.2888877 L36.4984564,17.2651882 C37.5637756,17.1334349 38.7294915,17.3495104 39.2203192,17.765851 C39.7111469,18.1821916 39.3820692,18.6828544 38.4394569,18.9200105 C37.4669022,19.1569477 36.4385176,19.0809179 35.516801,18.703935 C34.7917146,18.3455658 34.8084473,17.8290926 35.5669993,17.4970741 L32.4825933,15.5260438 L29.2029717,16.3481848 L34.0889385,19.4733746 C34.1726023,19.526076 34.2004903,19.5893176 34.1670247,19.6472891 C34.1126887,19.724456 34.0247519,19.7746962 33.9271885,19.7843126 L26.8826952,21.5761584 C27.2285057,21.9819587 26.8826952,22.4141098 26.007014,22.6301853 L25.7727553,22.6828866 C24.8057007,22.8807462 23.7959019,22.7540251 22.9170304,22.3245175 C22.2979182,21.9292574 22.4819786,21.4127842 23.3409271,21.1281969 L23.5528754,21.0702254 C24.4633269,20.8549498 25.4211897,20.9026813 26.3026261,21.2072489 L32.9120675,19.5102656 L28.332868,16.5800707 C26.7509516,16.9507789 25.1177996,17.0876693 23.4915219,16.9858711 L18.689219,18.2032722 C19.0182966,18.6038024 18.6390207,19.0306833 17.8023825,19.2572991 L17.5569687,19.3100005 C16.5911187,19.5067703 15.582849,19.3781291 14.7068214,18.9463612 C14.0932867,18.5511011 14.2717695,18.0451681 15.130718,17.7605809 L15.3538215,17.6920691 C16.2549135,17.480482 17.2021934,17.5263356 18.0756843,17.8238225 L21.9186422,16.8751983 C20.8379728,16.7304794 19.7833304,16.4467762 18.7840379,16.0319767 L12.5315622,17.6130171 C12.8606398,18.0135473 12.4813639,18.4404282 11.6391481,18.667044 L11.3937343,18.7250155 C10.4296056,18.9191741 9.42402942,18.790625 8.54916456,18.3613762 C7.93005233,17.9661161 8.11969031,17.4601832 8.96748364,17.1703258 C9.03999228,17.1703258 9.1180785,17.1228946 9.19616473,17.1070842 C10.0964714,16.8915564 11.0444476,16.9356083 11.9180275,17.2335674 L18.1258826,15.652527 L17.9418222,15.5365841 C17.4541643,15.2541383 17.0659928,14.8415171 16.8263047,14.3508038 L13.8422953,15.1097032 C14.1713729,15.5102334 13.792097,15.9371143 12.9498812,16.1637301 L12.7044674,16.2164314 C11.7312518,16.4088559 10.7173472,16.2687952 9.8431649,15.8211713 C9.22405267,15.4259112 9.40811306,14.9199783 10.261484,14.6301209 L10.4957427,14.5616091 C11.3931145,14.3502459 12.336768,14.3961119 13.2064503,14.6933625 L16.658977,13.8185202 C16.658977,12.8066543 17.8302705,11.8738405 19.8493572,11.3204763 L19.7656934,11.0991307 L8.33163864,13.9924346 C8.19510956,14.0255043 8.05328629,14.034438 7.91331957,14.0187853 C7.7892026,14.0094949 7.66899292,13.9734366 7.56193154,13.9133826 L2.98273206,10.9884579 C1.91183523,11.1254814 0.751696994,10.914676 0.238558928,10.4930652 C-0.274579138,10.0714544 0.0656537099,9.57079165 1.01384361,9.33363559 C1.98887497,9.09836433 3.01903294,9.17623414 3.94207714,9.55498124 C4.66716354,9.91862053 4.63369801,10.4350937 3.8695685,10.7618421 L8.14200066,13.497042 L19.107538,10.7249511 L14.5060282,7.77367573 C13.440709,7.9054291 12.2749931,7.68935358 11.7841654,7.24666227 C11.2933377,6.80397096 11.627993,6.33492898 12.5706053,6.09250279 C13.5415569,5.85838176 14.5672048,5.93435414 15.4876836,6.30857831 C16.21277,6.6722176 16.1904597,7.18869079 15.4374853,7.51543914 L19.8047365,10.3086105 C20.0408635,9.62444769 20.5378924,9.0477406 21.1991334,8.69067916 C21.126947,8.67543023 21.0586917,8.64676672 20.9983403,8.60635701 L15.7832958,5.28090205 C14.7179765,5.41265542 13.5522607,5.1965799 13.061433,4.75388859 C12.5706053,4.31119728 12.9052605,3.84215529 13.8478729,3.5997291 C14.8188245,3.36560807 15.8444723,3.44158046 16.7649512,3.81580462 C17.4900376,4.17417378 17.4677273,4.69064697 16.7147529,5.02266545 L21.8461336,8.30595933 C22.4973933,8.00968977 23.1772617,7.77320476 23.8763755,7.59976129 L24.4341343,7.46273779 L21.9632629,5.8816974 C20.8979437,6.01345077 19.7322278,5.79737525 19.2414001,5.35468394 C18.7505724,4.91199263 19.0852277,4.46403118 20.0222624,4.22687512 C20.992603,3.99109341 22.0182343,4.06521161 22.9393408,4.43768051 C23.6700047,4.8013198 23.6476944,5.31779299 22.8947201,5.64454134 L25.3655914,7.22558173 C25.3894661,7.24194697 25.4055095,7.26658042 25.4102121,7.29409348 C26.8161171,7.07489016 28.2426583,6.99716033 29.6659115,7.06220756 L23.7759789,3.29406129 C23.6030737,3.1886586 23.6811599,3.04636496 23.937729,2.98312335 L30.9877998,1.19654771 C30.6364118,0.79074734 30.9877998,0.358596299 31.8579035,0.142520779 L32.0921621,0.0898194328 C33.0598431,-0.106872447 34.0698353,0.0217368738 34.947887,0.453458723 C35.5669993,0.848718821 35.3829389,1.35992188 34.5184128,1.64450915 L34.3008869,1.70775077 C33.3979965,1.92719921 32.4463132,1.8868259 31.5678689,1.5918078 L24.9863154,3.23608981 L31.1216619,7.16234012 L31.3838085,7.20450119 L40.3916126,4.9225329 C40.0625349,4.52200266 40.4362333,4.09512176 41.278449,3.86850597 L41.5294405,3.81580462 C42.4916473,3.61932337 43.4963119,3.7480083 44.3684326,4.17944391 C44.9875448,4.56943387 44.8034844,5.08063693 43.9501135,5.36522421 C43.8776297,5.39183815 43.8030286,5.41298483 43.72701,5.42846582 C42.8267377,5.64431832 41.8786593,5.60026172 41.0051472,5.30198259 L32.7001192,7.41003644 C33.7154371,7.59642399 34.7039284,7.89537563 35.6450855,8.3006892 L46.5660021,5.54440878 C46.2927004,5.2123903 46.5046487,4.84875101 47.1237609,4.61159495 C47.2379491,4.56683832 47.3553778,4.52985309 47.4751489,4.50092212 C48.105142,4.35664089 48.7591225,4.33156542 49.3994167,4.42714024 Z M43.3254237,9.80267757 C41.8306302,8.8487832 38.7852673,8.53784526 36.4984564,9.10174966 C36.3619273,9.13481932 36.220104,9.14375303 36.0801373,9.12810034 C35.9555308,9.12124141 35.8347263,9.08500479 35.7287493,9.02269764 C34.2729989,8.1636657 31.9471449,7.61030156 29.4316528,7.52597941 C27.789383,7.45759408 26.1453279,7.6156001 24.5512636,7.99502139 C23.963736,8.14308846 23.3908354,8.33881026 22.8389442,8.58000633 C21.1935558,9.33890572 20.5130901,10.3718521 20.9983403,11.3942582 C21.0373834,11.4838505 20.9369868,11.5734428 20.7529264,11.620874 L20.6692626,11.620874 C17.6462101,12.3850435 16.8095719,14.0029749 18.75615,15.2519968 C20.7027281,16.5010187 24.6962809,16.8962788 27.6802903,16.1426495 L41.914294,12.5431476 C44.1453291,11.9581626 44.7867517,10.7354914 43.3310013,9.78159703 L43.3254237,9.80267757 Z M32.4658605,0.537780877 C31.9471449,0.669534243 31.8021276,0.948851379 32.1423604,1.1649269 C32.4922536,1.34284051 32.8903672,1.41807419 33.2857659,1.38100242 C33.4214417,1.37195513 33.5559048,1.35077994 33.6873522,1.3177608 C33.8810092,1.29073027 34.054424,1.18974943 34.1670247,1.03844367 C34.2562662,0.85925909 34.0722058,0.669534243 33.704085,0.558861416 C33.300074,0.451697369 32.8736949,0.444438345 32.4658605,0.537780877 Z M49.7842702,5.40738528 C49.8735116,5.2282007 49.6894512,5.03847586 49.3213305,4.92780303 C48.9181896,4.81649039 48.4911419,4.80740238 48.083106,4.90145236 C47.5643903,5.03320572 47.4193731,5.31779299 47.7540283,5.53386851 C48.1056712,5.71224732 48.5062708,5.78574583 48.9030114,5.7446739 C49.0387723,5.73985443 49.1735069,5.72040465 49.3045977,5.68670242 C49.4965121,5.65524049 49.6682634,5.55522835 49.7842702,5.40738528 Z M37.4410687,17.7026094 C37.161392,17.6723337 36.8782696,17.6883847 36.6044306,17.7500406 C36.2251546,17.8501732 36.0466718,18.0293577 36.1136028,18.2138125 C36.3295126,18.4555963 36.64894,18.5929629 36.9837065,18.587992 C37.2656041,18.6141876 37.5501425,18.5963827 37.8259223,18.5352907 C37.9332492,18.5074645 38.0363487,18.4667267 38.1326896,18.4140776 C38.3892586,18.2665138 38.3948362,18.0662487 38.1326896,17.8870641 C37.9194538,17.7658925 37.6783097,17.695367 37.4299135,17.6815289 L37.4410687,17.7026094 Z M17.6294773,18.5511011 C17.6852532,18.4351581 17.6294773,18.3086749 17.4733048,18.2085423 C17.1328102,18.0324512 16.7441452,17.9571669 16.3577873,17.9924668 C16.220421,17.999487 16.0840795,18.0188991 15.9506234,18.0504383 C15.7569668,18.0810684 15.584282,18.1835214 15.4709509,18.3350255 C15.3761319,18.5142101 15.5601923,18.703935 15.9338906,18.8093377 C16.3394828,18.911992 16.766523,18.911992 17.1721151,18.8093377 C17.3669333,18.781631 17.5407386,18.6785132 17.6517876,18.5247504 L17.6294773,18.5511011 Z M20.312297,5.19130976 C20.7892194,5.42215013 21.3401077,5.47664518 21.8572888,5.34414367 C22.2309871,5.24928124 22.4150475,5.07009667 22.3425389,4.88564195 C22.1266291,4.64385808 21.8072018,4.50649147 21.4724352,4.51146239 C21.1905893,4.48261667 20.9055781,4.50045114 20.6302195,4.56416374 C20.5228925,4.59198993 20.419793,4.63272767 20.3234521,4.68537684 C20.0724607,4.83294061 20.0613055,5.03320572 20.3234521,5.2123903 L20.312297,5.19130976 Z M44.9094586,15.8211713 C44.6276711,15.7899367 44.3422102,15.8077993 44.0672429,15.8738727 C43.6935445,15.9687351 43.5094841,16.1479197 43.5819927,16.3323744 C43.7930864,16.5771236 44.1124998,16.7153704 44.4465188,16.7065539 C44.7282965,16.7381503 45.0138275,16.7202833 45.2887346,16.6538526 C45.3989496,16.6292249 45.5043611,16.5883174 45.6010795,16.5326395 C45.8520709,16.3850757 45.8576485,16.1848106 45.6010795,16.005626 C45.3878796,15.8964143 45.1516278,15.8334062 44.9094586,15.8211713 Z M57.1801515,12.4061241 C56.8064531,12.5062566 56.6223927,12.6854412 56.6949014,12.8698959 C56.9108111,13.1116798 57.2302385,13.2490464 57.565005,13.2440755 C57.8467861,13.2755507 58.1322935,13.2576851 58.4072208,13.1913741 C58.5145478,13.1635479 58.6176472,13.1228102 58.7139881,13.070161 C58.9649795,12.9225973 58.9705571,12.7223322 58.7139881,12.5431476 C58.5001972,12.4223418 58.2596008,12.3501723 58.0112121,12.3323422 C57.7293082,12.3065275 57.4448354,12.3243283 57.1689963,12.3850435 L57.1801515,12.4061241 Z M41.9031389,4.2690362 C41.3900008,4.40078957 41.2449835,4.6801067 41.5852164,4.89618222 C41.9266422,5.06986092 42.3145244,5.14499361 42.7007339,5.11225774 C42.835969,5.10267402 42.9702257,5.08329323 43.1023202,5.05428626 C43.3089139,5.02663613 43.4933884,4.91745565 43.6098807,4.75388859 C43.6991221,4.57470401 43.5150617,4.38497916 43.1413633,4.27430634 C42.7354383,4.17406986 42.3090638,4.17406986 41.9031389,4.27430634 L41.9031389,4.2690362 Z M11.4662429,17.9766564 C11.5275964,17.8607134 11.4662429,17.7342302 11.3044929,17.6288275 C10.963067,17.4551488 10.5751848,17.3800161 10.1889753,17.412752 C10.0532996,17.4217993 9.91883641,17.4429745 9.78738903,17.4759936 C9.59547465,17.5074555 9.42372336,17.6074677 9.30771649,17.7553107 C9.2128975,17.9344953 9.39695789,18.1242202 9.76507867,18.234893 C10.1725345,18.337746 10.6014249,18.337746 11.0088807,18.234893 C11.2014272,18.2050189 11.3737634,18.1046661 11.4885533,17.9555759 L11.4662429,17.9766564 Z M2.79309408,10.4930652 C3.17237004,10.3929326 3.35085285,10.2137481 3.2839218,10.0292934 C3.06925736,9.78894583 2.7522194,9.65172715 2.41939571,9.6551138 C2.13722908,9.6277722 1.85217393,9.64739315 1.57717997,9.71308528 C1.46726343,9.73598314 1.36185453,9.7751111 1.26483506,9.82902824 C1.00826603,9.97659201 1.00826603,10.1768571 1.26483506,10.3560417 C1.7400779,10.5853747 2.28795767,10.6416441 2.80424926,10.5141457 L2.79309408,10.4930652 Z M46.7946832,7.38895591 C46.2759676,7.51543914 46.1365279,7.80002641 46.4711832,8.01083179 C46.8121368,8.1860396 47.1999582,8.26299274 47.5867007,8.23217745 C47.7206,8.22358507 47.853259,8.20239975 47.9827094,8.16893583 C48.1783969,8.13963144 48.3533252,8.03704032 48.4679595,7.88434856 C48.5572009,7.71043412 48.3731406,7.52070927 47.9994422,7.41003644 C47.5961127,7.30476331 47.1701248,7.30476331 46.7667953,7.41003644 L46.7946832,7.38895591 Z M14.1211746,4.62213522 C14.6011,4.84543293 15.1516832,4.8923854 15.6661664,4.75388859 C16.0454424,4.65902616 16.2239252,4.47457145 16.1514166,4.29538687 C15.9403229,4.05063768 15.6209095,3.9123909 15.2868905,3.92120731 C15.0051095,3.88973215 14.719602,3.90759768 14.4446747,3.97390866 C14.336895,3.99795421 14.2335054,4.03703038 14.1379074,4.08985162 C13.8813384,4.23741539 13.8757608,4.44295064 14.1379074,4.61686509 L14.1211746,4.62213522 Z M43.632191,18.3192151 C43.3522511,18.2881518 43.0686515,18.3060163 42.7955529,18.3719165 C42.4162769,18.4667789 42.2377941,18.6459635 42.3103028,18.8304182 C42.5231389,19.0760049 42.8446238,19.2142563 43.1804064,19.2045978 C43.4603399,19.2359031 43.7439864,19.2180357 44.0170446,19.1518964 C44.1272597,19.1272687 44.2326711,19.0863612 44.3293895,19.0306833 C44.5803809,18.8831196 44.5859585,18.6828544 44.3293895,18.5036699 C44.1130416,18.3848146 43.8706946,18.3144954 43.6210359,18.2981346 L43.632191,18.3192151 Z M12.7546657,15.4469918 C12.8160191,15.3310488 12.7546657,15.2045656 12.5929156,15.0991629 C12.2517175,14.9248919 11.8636449,14.8497223 11.4773981,14.8830874 C11.3417223,14.8921346 11.2072592,14.9133098 11.0758118,14.946329 C10.8838974,14.9777909 10.7121461,15.077803 10.5961392,15.2256461 C10.5013202,15.4048307 10.6853806,15.5945555 11.0535014,15.7052284 C11.4609573,15.8080814 11.8898476,15.8080814 12.2973035,15.7052284 C12.48985,15.6753542 12.6621861,15.5750015 12.776976,15.4259112 L12.7546657,15.4469918 Z M25.8508415,21.9503379 C25.912195,21.8343949 25.8508415,21.7079117 25.6946691,21.602509 C25.3450035,21.4242379 24.9462078,21.3507134 24.5512636,21.3917036 C24.4155027,21.3965231 24.2807681,21.4159729 24.1496773,21.4496751 C23.9560207,21.4803052 23.7833359,21.5827582 23.6700047,21.7342624 C23.5751858,21.9081768 23.7592461,22.0979017 24.1273669,22.2085745 C24.5344675,22.3139535 24.9640684,22.3139535 25.371169,22.2085745 C25.5637155,22.1787004 25.7360516,22.0783477 25.8508415,21.9292574 L25.8508415,21.9503379 Z M12.8327519,7.12544917 C13.3060906,7.36074035 13.8563793,7.41725722 14.3721661,7.28355321 C14.7514421,7.18869079 14.9299249,7.00423608 14.8574162,6.8250515 C14.6463226,6.58030231 14.3269092,6.44205553 13.9928901,6.45087194 C13.7111091,6.41939678 13.4256017,6.4372623 13.1506744,6.50357329 C13.0428946,6.52761884 12.9395051,6.566695 12.8439071,6.61951625 C12.587338,6.77235015 12.5817605,6.96734514 12.8439071,7.14652971 L12.8327519,7.12544917 Z" id="Shape"></path>
                </g>
                <g id="Group-5" transform="translate(319.200000, 27.568493)" fill-rule="nonzero">
                    <g id="Asset-38-Copy-15" transform="translate(63.600000, 0.000000)">
                        <polygon id="Shape" fill="#ECEFF1" points="59.424 0 105.432 31.1164384 47.208 46.6986301 1.212 15.5821918"></polygon>
                        <polygon id="Shape" fill="#B0BEC5" points="105.432 31.1164384 104.22 93.7688356 46.008 109.351027 47.208 46.6986301"></polygon>
                        <polygon id="Shape" fill="#CFD8DC" points="47.208 46.6986301 46.008 109.351027 0 78.234589 1.212 15.5821918"></polygon>
                    </g>
                    <path d="M0.151137992,110.273973 L85.351138,86.3013699" id="Path-9" stroke="url(#linearGradient-1)" stroke-width="3.6" stroke-linecap="round"></path>
                    <g id="Asset-51" transform="translate(93.751138, 8.390411)" fill="#9F9F9F">
                        <path d="M16.5529096,5.76484325 L16.6246399,5.76484325 L19.1147074,5.09750592 C21.3844602,4.49639291 24.4381231,4.81732613 25.9239658,5.81578503 L28.1681006,7.34403846 L25.6575388,7.85345627 L23.6081006,6.45765147 C22.689808,5.9584168 21.6164402,5.82024376 20.6005501,6.07049394 L18.1156062,6.73273709 C17.1318759,6.99763435 16.8500782,7.57327647 17.4956512,8.00628161 L19.5707074,9.4020864 L17.4546624,10.1560248 L15.2105276,8.62777133 C13.7400557,7.66497168 14.319022,6.36086209 16.5529096,5.76484325 Z" id="Shape"></path>
                        <path d="M29.7781145,7.28525956 C30.7379694,7.08080602 31.7394445,7.21404952 32.6114628,7.66222874 L37.2944291,10.8206192 C37.9143841,11.2332476 37.7350583,11.7579479 36.8742942,12.0635986 L31.4791482,13.9484445 L31.0538897,14.0656106 L24.7006313,15.30859 C23.7407933,15.5134731 22.7391714,15.38021 21.867283,14.9316209 L17.1638223,11.7732305 C16.5489909,11.360602 16.7283167,10.8359017 17.5890808,10.530251 L22.9995976,8.64031093 L23.209665,8.58427497 L23.4299796,8.52823902 L29.7781145,7.28525956 Z M29.9830583,12.1349171 L27.7747886,11.0091037 C28.0155976,10.815525 27.9951032,10.5557219 27.6876875,10.3468606 C27.0340522,10.000167 26.2730386,9.91104304 25.5562718,10.0972459 L25.4845414,10.0972459 C24.7569909,10.2908246 24.5469234,10.7136414 25.0234178,11.0345746 C25.443399,11.2681319 25.9210512,11.3793562 26.401665,11.3555079 L27.8362718,12.6850883 L29.9728111,12.1349171 L29.9830583,12.1349171 Z" id="Shape"></path>
                        <path d="M13.1625169,2.1140839 L33.1752809,0 L39.8359551,4.47778253 C45.6461124,8.3901113 46.7630562,13.2041096 42.8281348,17.3660531 L40.1177528,20.2493579 L32.7910112,20.0404966 C22.2107865,19.7195634 12.4349663,17.2081336 6.66067416,13.3161815 L0,8.83839897 L13.1625169,2.1140839 Z M37.5098427,5.09417808 L31.9507416,1.35505137 L14.7354607,3.16857877 L3.40719101,8.95556507 L8.96629213,12.699786 C14.2384719,16.2657106 23.1740225,18.5631849 32.8473708,18.8127997 L38.2220225,18.965625 L40.2253483,16.8515411 C43.8118652,13.0410959 42.7871461,8.64482021 37.5098427,5.07380137 L37.5098427,5.09417808 Z" id="Shape"></path>
                    </g>
                </g>
                <g id="Group-8" transform="translate(116.400000, 232.534247)" fill-rule="nonzero">
                    <polyline id="Path-11" stroke="url(#linearGradient-1)" stroke-width="3.6" stroke-linecap="round" points="99.6 41.9520548 130.8 32.3630137 100.8 10.7876712 130.8 1.19863014"></polyline>
                    <g id="Group-7">
                        <g id="Asset-38-Copy-12" transform="translate(0.151138, 0.000000)">
                            <polygon id="Shape" fill="#ECEFF1" points="59.424 0 105.432 31.1164384 47.208 46.6986301 1.212 15.5821918"></polygon>
                            <polygon id="Shape" fill="#B0BEC5" points="105.432 31.1164384 104.22 93.7688356 46.008 109.351027 47.208 46.6986301"></polygon>
                            <polygon id="Shape" fill="#CFD8DC" points="47.208 46.6986301 46.008 109.351027 0 78.234589 1.212 15.5821918"></polygon>
                        </g>
                        <g id="Asset-53" transform="translate(31.351138, 20.376712)" fill="#9F9F9F">
                            <path d="M18.962963,2.5890411 L16.9303704,3.38613014 C17.2031774,3.66480868 17.3762643,4.02756382 17.4222222,4.41695205 L19.9881481,4.88441781 L19.4844444,5.92722603 L16.7466667,5.83133562 C16.3237952,6.16952893 15.8572692,6.44778079 15.36,6.65839041 L16.4385185,7.79109589 L14.3703704,8.35445205 L12.4740741,7.4494863 C11.7011891,7.56701009 10.9208283,7.62710248 10.1392593,7.62928082 L9.15555556,8.73202055 L6.78518519,8.47431507 L6.91555556,7.27568493 C6.25573882,7.10080677 5.60670808,6.88667842 4.97185185,6.63441781 L2.42962963,7.06592466 L1.05481481,6.1369863 L3.05185185,5.33989726 C2.78124837,5.05965025 2.60854312,4.69769499 2.56,4.30907534 L0,3.84160959 L0.497777778,2.79880137 L3.24148148,2.89469178 C3.6770359,2.57563846 4.14130362,2.29873352 4.62814815,2.06763699 L3.55555556,0.940924658 L5.61777778,0.377568493 L7.51407407,1.28253425 C8.28658957,1.1617373 9.06719498,1.10162608 9.84888889,1.10273973 L10.8266667,0 L13.197037,0.257705479 L13.0725926,1.45633562 C13.731143,1.62646923 14.3783668,1.83865271 15.0103704,2.09160959 L17.5525926,1.66010274 L18.962963,2.5890411 Z M12.0237037,5.75342466 C13.8014815,5.2739726 14.24,4.30907534 13.0903704,3.5239726 C11.9407407,2.73886986 9.72444444,2.49914384 7.96444444,2.99657534 C6.20444444,3.49400685 5.74222222,4.41695205 6.89185185,5.20205479 C8.04148148,5.98715753 10.2637037,6.22688356 12.0237037,5.75342466 Z" id="Shape"></path>
                            <path d="M40.0414815,3.35616438 C40.5523957,3.63211263 41.019759,3.98358158 41.4281481,4.3989726 L45.7837037,4.32106164 L46.5362963,5.92722603 L42.1451852,6.46660959 C42.0236611,6.80051028 41.9459616,7.14908765 41.9140741,7.50342466 L45.3807407,8.88784247 L43.3066667,10.2243151 L39.1111111,9.22945205 C38.6843342,9.39974978 38.2491935,9.54777566 37.8074074,9.67294521 C37.6126793,9.72891239 37.4147887,9.77294221 37.2148148,9.80479452 L37.522963,11.7945205 L33.8844444,12.0642123 L32.5155556,10.2662671 C31.5866575,10.2695291 30.6590735,10.1953625 29.7422222,10.0445205 L26.9451852,11.3630137 L23.8162963,10.3981164 L25.522963,8.90582192 C24.8622503,8.57448658 24.2384584,8.17265962 23.6622222,7.70719178 L19.9644444,7.76712329 L19.2,6.15496575 L22.4651852,5.7234589 C22.4715538,5.14054344 22.7034233,4.58333742 23.1111111,4.17123288 L20.6281481,3.18236301 L22.5362963,1.82791096 L25.6118519,2.54708904 C26.0069136,2.40724886 26.4158025,2.28139269 26.8385185,2.16952055 C27.4451411,2.00333418 28.0604059,1.87128231 28.6814815,1.7739726 L28.5037037,0.275684932 L32.1362963,0 L33.2740741,1.56421233 C34.2979244,1.62397251 35.3160067,1.76018836 36.32,1.97174658 L38.8740741,0.773116438 L42.002963,1.73202055 L40.0414815,3.35616438 Z M34.9925926,7.69520548 C37.2681481,7.09589041 37.9081481,5.74143836 36.4207407,4.69863014 C34.9333333,3.65582192 31.8577778,3.37414384 29.5881481,3.99143836 C27.3185185,4.60873288 26.6785185,5.94520548 28.1659259,6.9880137 C29.6533333,8.03082192 32.722963,8.3364726 34.9925926,7.71917808 L34.9925926,7.69520548 Z" id="Shape"></path>
                        </g>
                    </g>
                </g>
                <g id="Netwrok" transform="translate(380.200000, 106.678082)" fill-rule="nonzero">
                    <g id="Asset-38-Copy-3" transform="translate(108.200000, 0.000000)">
                        <polygon id="Shape" fill="#CFD8DC" points="59.424 0 105.432 31.1164384 47.208 46.6986301 1.212 15.5821918"></polygon>
                        <polygon id="Shape" fill="#ECEFF1" points="105.432 31.1164384 104.22 93.7688356 46.008 109.351027 47.208 46.6986301"></polygon>
                        <polygon id="Shape" fill="#B0BEC5" points="47.208 46.6986301 46.008 109.351027 0 78.234589 1.212 15.5821918"></polygon>
                    </g>
                    <g id="Asset-50" transform="translate(143.000000, 15.000000)" fill="#9F9F9F">
                        <path d="M29.5709434,5.40269506 C31.4422642,4.86643836 33.9860377,5.15463073 35.2120755,6.0447439 C36.4381132,6.93485706 35.8913208,8.10951459 34.0335849,8.6494193 C32.1758491,9.189324 29.6184906,8.90113163 28.3924528,8.02561048 C28.3230861,7.97591775 28.2562012,7.92233964 28.1920755,7.86509827 L23.8245283,8.30650685 C23.8245283,9.13825194 22.9754717,9.94446099 21.3758491,10.4041096 C20.377734,10.6778082 19.3489496,10.8005918 18.3192453,10.7689101 L17.4226415,12.7096486 C18.0700498,12.8413739 18.6893989,13.099813 19.2498113,13.4720816 C20.5777358,14.4388029 20.0037736,15.7083085 17.9728302,16.2956373 C15.9418868,16.8829661 13.1909434,16.5619416 11.8596226,15.5988684 C10.5283019,14.6357951 11.1090566,13.3589934 13.1366038,12.7680167 C13.8866286,12.5624749 14.6584516,12.4631371 15.4324528,12.4725283 L16.3018868,10.5354378 C15.4304099,10.3799907 14.5953298,10.0442395 13.8430189,9.54682847 C13.245283,9.12001191 12.9735849,8.62388326 12.9735849,8.14964264 L6.60566038,7.68269803 C6.2921173,7.89719094 5.94791728,8.05493694 5.58679245,8.14964264 C4.02792453,8.59834723 1.90867925,8.35757892 0.886415094,7.61338594 C-0.135849057,6.86919297 0.309056604,5.8915277 1.86792453,5.42458309 C3.42679245,4.95763848 5.54603774,5.22029482 6.56830189,5.96083979 C6.85542622,6.1264342 7.06122671,6.41807024 7.13207547,6.75975283 L13.3811321,7.21575342 C13.9606151,6.64429747 14.6727479,6.2511227 15.4426415,6.07757594 C15.8370681,5.96990598 16.2375106,5.88948522 16.6415094,5.83680762 L15.1369811,3.46195652 C14.0196226,3.40358845 12.9430189,3.09715605 12.2841509,2.63750744 C11.16,1.82400238 11.6456604,0.729600953 13.3641509,0.248064324 C15.0826415,-0.233472305 17.4090566,0.0218880286 18.5332075,0.839041096 C19.6573585,1.65619416 19.1683019,2.73235557 17.4532075,3.22483621 C17.354717,3.25402025 17.2460377,3.27955628 17.1407547,3.30144431 L18.6792453,5.72371948 C19.2488295,5.74732331 19.8162166,5.81314393 20.3773585,5.92071173 L22.4898113,3.64800476 C22.3459525,3.57972167 22.207399,3.49920975 22.0754717,3.40723645 C21.0566038,2.6776355 21.5015094,1.6853782 23.0569811,1.23667362 C24.6124528,0.787969029 26.7283019,1.02873734 27.750566,1.77293032 C28.7728302,2.51712329 28.3279245,3.49478856 26.7690566,3.96173317 C25.9544517,4.17860358 25.1109261,4.24155872 24.2762264,4.14778142 L22.109434,6.45696843 C22.4010607,6.58676952 22.6807655,6.745539 22.9449057,6.93120905 C23.1228293,7.05816584 23.2868812,7.20623445 23.4339623,7.37261763 L27.7335849,6.93120905 C27.7675472,6.31469625 28.4128302,5.73831149 29.5709434,5.40269506 Z M20.2584906,9.59425253 C21.8411321,9.13825194 22.2758491,8.17517868 21.24,7.4236897 C20.2041509,6.67220071 18.1188679,6.4314324 16.5396226,6.887433 C14.9603774,7.34343359 14.5256604,8.30650685 15.5581132,9.05799583 C16.590566,9.80948481 18.6792453,10.0466051 20.2584906,9.59425253 Z M16.8622642,15.4821322 C17.969434,15.1611078 18.2750943,14.4898749 17.5415094,13.9645622 C16.8079245,13.4392496 15.3611321,13.2677933 14.250566,13.5997618 C13.14,13.9317302 12.8411321,14.5920191 13.5849057,15.1063877 C14.3286792,15.6207564 15.7686792,15.7995086 16.8758491,15.4711882 L16.8622642,15.4821322 Z M32.9196226,7.83956224 C33.870566,7.56596188 34.1286792,6.98957713 33.5037736,6.53722454 C32.8788679,6.08487195 31.6358491,5.93895176 30.6849057,6.21620012 C29.7339623,6.49344848 29.4724528,7.06618523 30.0973585,7.51853782 C30.7222642,7.97089041 31.9686792,8.1131626 32.9196226,7.83956224 Z M14.4781132,1.05792138 C13.6833962,1.28774568 13.4592453,1.76563431 13.9856604,2.15232281 C14.5120755,2.53901132 15.5445283,2.64845146 16.3392453,2.42227516 C17.1339623,2.19609887 17.3581132,1.71456224 16.8316981,1.32787373 C16.305283,0.941185229 15.2830189,0.831745086 14.4781132,1.05792138 Z M24.1641509,2.05017868 C23.5290566,2.23257892 23.3558491,2.61561942 23.7735849,2.91840381 C24.3522177,3.24103936 25.0227185,3.31787894 25.6516981,3.13363609 C26.2901887,2.94758785 26.4633962,2.55360334 26.0456604,2.26176295 C25.4658242,1.93871164 24.7937054,1.86312883 24.1641509,2.05017868 Z M4.46603774,7.33613758 C5.1045283,7.15373734 5.27773585,6.77434485 4.86,6.47156045 C4.28176165,6.14752082 3.61075661,6.07062346 2.98188679,6.25632817 C2.34,6.43872841 2.16679245,6.82176891 2.5845283,7.12455331 C3.16436449,7.44760462 3.8364833,7.52318743 4.46603774,7.33613758 Z" id="Shape"></path>
                    </g>
                    <polyline id="Path-12" stroke="url(#linearGradient-1)" stroke-width="3.6" stroke-linecap="round" points="131 89.8972603 83 103.082192 17 55.1369863 0.16953097 59.7518409"></polyline>
                </g>
                <g id="Db" transform="translate(33.600000, 0.000000)" fill-rule="nonzero">
                    <g id="Group-10">
                        <g id="Asset-38-Copy-13" transform="translate(0.151138, 0.000000)">
                            <polygon id="Shape" fill="#CFD8DC" points="59.424 0 105.432 31.1164384 47.208 46.6986301 1.212 15.5821918"></polygon>
                            <polygon id="Shape" fill="#ECEFF1" points="105.432 31.1164384 104.22 93.7688356 46.008 109.351027 47.208 46.6986301"></polygon>
                            <polygon id="Shape" fill="#B0BEC5" points="47.208 46.6986301 46.008 109.351027 0 78.234589 1.212 15.5821918"></polygon>
                        </g>
                        <g id="Asset-54" transform="translate(54.151138, 22.773973) rotate(-3.000000) translate(-54.151138, -22.773973) translate(30.151138, 11.986301)" fill="#9F9F9F">
                            <path d="M28.0752,0.490348692 C29.0352,0.534480075 30.2112,0.578611457 30.984,1.12780199 L47.304,12.4058219 C47.9136,12.8422323 47.7408,13.3374844 47.3856,13.8327366 C46.7143757,14.5044046 45.9329087,15.0504456 45.0768,15.4459838 C41.9980845,16.9346386 38.7823185,18.1074183 35.4768,18.9470735 C31.7320229,19.9931169 27.9145271,20.7455373 24.0576,21.197774 C22.6058686,21.383716 21.1427515,21.4607435 19.68,21.4282379 C18.72,21.3841065 17.5152,21.2860367 16.8,20.795688 L0.48,9.51766812 C-0.2736,8.99299502 1.06642126e-15,8.61052304 0.3936,8.09565691 C1.06549241,7.4200151 1.84866535,6.87059769 2.7072,6.47260274 C5.78672017,4.98717478 9.00232865,3.816095 12.3072,2.97641656 C16.0561408,1.93708189 19.8742581,1.17829979 23.7312,0.706102117 C25.172264,0.527887008 26.6240092,0.455783185 28.0752,0.490348692 Z M40.8,9.24307285 L36.2688,6.10974471 L36.2304,6.15387609 C35.5690359,6.83124779 34.7933971,7.38108347 33.9408,7.77693026 C30.8594303,9.2577805 27.644269,10.4286974 24.3408,11.2731164 C20.5945483,12.314893 16.7776123,13.0704812 12.9216,13.5336239 C11.4737363,13.7066215 10.0156301,13.7738066 8.5584,13.7346669 L8.448,13.7346669 L12.96,16.8287671 L13.0032,16.8630915 C13.5294639,17.1018762 14.1032724,17.21105 14.6784,17.1818182 C15.953188,17.207555 17.2281989,17.1436588 18.4944,16.9905822 C22.2031024,16.5448581 25.8740888,15.8171227 29.4768,14.813434 C32.6587177,14.0060468 35.7552144,12.881005 38.7216,11.4545455 C39.4773435,11.1047974 40.1689249,10.6255108 40.7664,10.0374377 C41.0976,9.64515878 41.0544,9.39998443 40.8336,9.24307285 L40.8,9.24307285 Z M34.7904,5.08001245 L31.1616,2.57433064 L31.128,2.61846202 C30.4655572,3.29548513 29.6881073,3.84379012 28.8336,4.2366127 C26.6688,5.39383562 23.2992,6.61480386 19.2,7.73279888 C15.4564499,8.77929198 11.6407604,9.53495103 7.7856,9.99330635 C6.33943692,10.1676754 4.88294486,10.2364987 3.4272,10.1992528 L3.3168,10.1992528 L6.8976,12.6509963 L6.9456,12.6804172 C7.47185956,12.9254838 8.04794784,13.0381411 8.6256,13.0089508 C9.90841997,13.0383337 11.1916607,12.974427 12.4656,12.8177148 C16.1738561,12.3714728 19.8446872,11.6454072 23.448,10.6454701 C26.6276046,9.83981577 29.7223645,8.71810547 32.688,7.29638854 C33.4425731,6.94662443 34.1338966,6.46917432 34.7328,5.88418431 C35.064,5.49190535 35.016,5.23692403 34.7904,5.08001245 Z M45.9552,12.8079078 L42.2832,10.2679016 L42.24,10.2973225 C41.5776818,10.9757634 40.8002706,11.5257026 39.9456,11.9203767 C36.865201,13.4036305 33.6498057,14.5746327 30.3456,15.4165629 C26.6046723,16.4591948 22.7923393,17.2131855 18.9408,17.6721669 C17.4949329,17.8503929 16.0382836,17.9208625 14.5824,17.8830168 L14.4768,17.8830168 L18.1104,20.3985056 C18.6364156,20.6264157 19.2050055,20.7335462 19.776,20.7123288 C21.0587879,20.7393047 22.3418634,20.6754062 23.616,20.5210928 C27.3115987,20.0771135 30.96971,19.352664 34.56,18.3537516 C37.7434226,17.5462157 40.8414978,16.4211845 43.8096,14.994863 C44.5616174,14.6409595 45.2509708,14.1620929 45.8496,13.5777553 C46.1568,13.2099938 46.1376,12.9648194 45.9504,12.8079078 L45.9552,12.8079078 Z M1.7904,9.13519614 L1.8336,9.16461706 C2.35712862,9.40679635 2.93019454,9.51614224 3.504,9.48334371 C4.78668028,9.51221499 6.06977362,9.44995406 7.344,9.29701121 C11.0524078,8.84935509 14.7232546,8.12164735 18.3264,7.11986301 C21.5085601,6.31329807 24.6051346,5.18822789 27.5712,3.76097447 C28.3276448,3.41250647 29.0194299,2.93307867 29.616,2.34386675 C29.9472,1.9515878 29.904,1.70150996 29.6784,1.54950187 C29.1491668,1.30307173 28.569647,1.19038723 27.9888,1.22096824 C26.7060893,1.1895589 25.4228211,1.25182832 24.1488,1.40730075 C20.4530869,1.85294312 16.7949778,2.57903122 13.2048,3.57954545 C10.0187615,4.39087681 6.91770499,5.51746542 3.9456,6.94333748 C3.196661,7.29501834 2.51170171,7.77421516 1.92,8.36044521 C1.608,8.72820672 1.6368,8.97828456 1.8288,9.13519614 L1.7904,9.13519614 Z" id="Shape"></path>
                        </g>
                    </g>
                    <polyline id="Path-8-Copy" stroke="url(#linearGradient-1)" stroke-width="3.6" stroke-linecap="round" points="214.8 103.082192 206.4 97.0890411 115.8 122.859589 82.8 99.4863014"></polyline>
                </g>
                <g id="Group-11" transform="translate(336.000000, 226.541096)" fill-rule="nonzero">
                    <path d="M0.6,0.599315068 L86.4,62.3287671" id="Path-2-Copy-4" stroke="url(#linearGradient-1)" stroke-width="3.6" stroke-linecap="round"></path>
                    <g id="Group-6" transform="translate(74.400000, 11.986301)">
                        <g id="Asset-38-Copy-14" transform="translate(0.000000, 0.822049)">
                            <polygon id="Shape" fill="#ECEFF1" points="59.424 0 105.432 31.1164384 47.208 46.6986301 1.212 15.5821918"></polygon>
                            <polygon id="Shape" fill="#B0BEC5" points="105.432 31.1164384 104.22 93.7688356 46.008 109.351027 47.208 46.6986301"></polygon>
                            <polygon id="Shape" fill="#CFD8DC" points="47.208 46.6986301 46.008 109.351027 0 78.234589 1.212 15.5821918"></polygon>
                        </g>
                        <g id="Asset-47" transform="translate(34.800000, 15.205611)" fill="#9F9F9F">
                            <path d="M16.1101474,0.286937721 C23.3652986,-0.125922017 30.9935961,1.2654153 35.2805381,4.09350451 C41.0515847,7.9000713 38.5879711,12.846131 29.7681497,15.1457597 C28.8734467,15.3810898 27.9448212,15.5586195 26.9949943,15.7320205 L26.5328018,14.753543 C27.202769,14.6255564 27.8684959,14.4893127 28.508781,14.3406832 C29.3341656,14.1270914 30.1455411,13.8651362 30.9384722,13.5562497 L27.3045361,13.1186184 L23.0175941,14.2168253 L21.7455045,13.3911058 L19.6507969,13.9360807 C19.680479,14.1590249 19.4430222,14.373712 18.9723491,14.4975699 C18.2621888,14.6828035 17.5066947,14.6048307 16.8521997,14.2787543 C16.3900071,13.9773667 16.5893012,13.5810213 17.2762296,13.3952344 C17.775267,13.2795751 18.2952191,13.2795751 18.7942565,13.3952344 L20.8889641,12.846131 L19.6168745,12.0204115 L20.8889641,11.6859951 L27.274854,10.0345562 L27.4529466,10.1542855 L30.1285751,10.4763161 C30.2294185,10.4287472 30.3344313,10.3900593 30.4423572,10.3607153 C31.152706,10.1778533 31.9073166,10.2557349 32.5625066,10.579531 C33.0246992,10.8850472 32.8254051,11.2813926 32.1384767,11.4630508 C31.4288368,11.6495551 30.6733644,11.5730557 30.0183273,11.2483638 C29.9591131,11.2079314 29.9050259,11.1608124 29.857196,11.1079915 L27.3130167,10.7983467 L21.7836672,12.23097 L23.4797867,13.3333055 L27.2960555,12.3341849 L27.4783884,12.4539142 L32.142717,13.0195321 C34.0211694,12.1112406 35.2466157,11.0130337 35.7893739,9.84876927 L32.4607394,9.43590953 L31.9943066,9.55976745 L28.0423481,6.9504939 L24.747636,6.53763417 C24.5186599,6.87617915 24.2769628,7.23949572 24.0395061,7.5862979 C23.9928628,7.65648406 23.9080568,7.78447058 23.8995762,7.78859917 L23.3313762,7.94548588 L20.617585,8.67211902 C20.6472671,8.89093468 20.4055701,9.10975034 19.9348969,9.23360826 C19.2249665,9.4216667 18.4684096,9.34358423 17.8147475,9.0147926 C17.352555,8.71340499 17.551849,8.31705964 18.2387774,8.13127276 C18.7380673,8.01772685 19.2575145,8.01772685 19.7568043,8.13127276 L22.5129985,7.4335398 L22.6020448,7.49546876 L24.2006374,5.01831033 L20.9101656,2.8425395 L18.3659864,3.50724368 L20.1553924,4.68802254 C20.6280722,4.66499805 21.0979784,4.7708013 21.512288,4.99353874 C21.9744806,5.29905495 21.7794269,5.6954003 21.0882582,5.88118718 C20.3780979,6.06642071 19.6226038,5.98844793 18.9681088,5.66237152 C18.658567,5.45594165 18.6500864,5.216483 18.8875431,5.02243892 L16.2415967,3.30494241 L20.0578656,2.30582184 L18.404149,1.19110055 C17.70874,1.19110055 17.0090908,1.21587213 16.3179221,1.25715811 C16.1434662,1.36709615 15.9514467,1.44801964 15.749722,1.49661676 C14.8668329,1.73104807 13.9261355,1.63989744 13.1080159,1.24064372 C12.5398159,0.827783979 12.7772726,0.348866682 13.6592547,0.117665228 C14.4736184,-0.0844236117 15.3332363,-0.025053544 16.1101474,0.286937721 Z M36.0141098,9.20883668 C36.3830158,7.66061266 35.5561575,6.03394528 33.3681634,4.5930648 C31.8231016,3.62919815 30.1357509,2.90103095 28.3646108,2.43380836 L27.0543585,2.77648195 L29.6791034,4.51049285 C30.1516432,4.4889879 30.62113,4.59469672 31.035999,4.81600906 C31.4981916,5.12152526 31.2988976,5.51787061 30.6119692,5.6995289 C29.9023293,5.88603314 29.1468569,5.80953374 28.4918198,5.48484183 C28.182278,5.27841196 28.1737974,5.03482472 28.4112541,4.84078064 L24.9384494,2.56179488 L26.8805063,2.0663632 C24.6943138,1.58869252 22.4668332,1.31223586 20.2274775,1.24064372 L26.3674301,5.29079775 L25.4642465,5.52612781 L25.1674256,5.97201632 L29.1236243,6.45093362 L29.0727407,6.50460539 L30.3448303,7.33032486 L31.1589677,7.1197664 C31.1335259,6.89682214 31.3709826,6.67800648 31.8458961,6.55827715 C32.555536,6.37177291 33.3110084,6.44827231 33.9660455,6.77296422 C34.428238,7.07848042 34.228944,7.47482577 33.5420156,7.66061266 C33.0427257,7.77415857 32.5232785,7.77415857 32.0239887,7.66061266 L31.1971304,7.84639954 L32.6303514,8.79184834 L36.0225904,9.20470808 L36.0141098,9.20883668 Z" id="Shape"></path>
                            <path d="M6.97765718,13.3877388 C11.4358926,15.4442284 18.1786539,16.2651489 24.2565159,15.5363725 L24.721093,16.5122627 C16.7806604,17.4127622 7.9068114,16.0138467 3.13743722,12.8390624 C-2.66764557,8.97738541 -0.187059535,3.95971838 8.67826513,1.6267964 C9.5307002,1.39643606 10.4555922,1.20795942 11.3762221,1.04880137 L11.8407992,2.04144501 C11.1972107,2.16709611 10.5621466,2.30112394 9.93560685,2.46028199 C9.50938932,2.57336798 9.08317179,2.69901907 8.69531383,2.82467017 L11.3549112,4.59635059 L14.0443439,4.92304344 C14.1439031,4.87511647 14.2481486,4.83722757 14.3554827,4.80995745 C15.0687837,4.62075306 15.8281538,4.69836 16.4865703,5.02775268 C16.9511474,5.33769205 16.7508252,5.73977555 16.0603528,5.92825219 C15.3465287,6.11616747 14.5871368,6.03706582 13.9292651,5.70626859 C13.8697454,5.66525081 13.8153791,5.61744964 13.7673025,5.56386402 L12.224395,5.37538738 L11.5083495,5.55967565 L10.5365736,7.01303997 L13.5200963,7.37742814 L13.6735346,7.33554445 L13.7843512,7.40674673 L19.1376434,10.9710494 L25.7312286,9.23287597 C25.7013934,9.006704 25.9443374,8.78890877 26.4174388,8.66325767 C27.1312629,8.4753424 27.8906548,8.55444404 28.5485265,8.88524127 C29.0131036,9.19099227 28.8127813,9.59307577 28.1223089,9.78155241 C27.6218769,9.89669189 27.1011444,9.89669189 26.6007124,9.78155241 L18.7199502,11.8757373 L12.8253617,7.96379992 L2.76236579,6.73660756 C2.63585941,6.9704479 2.53307211,7.215952 2.45548916,7.46957228 L11.7896531,8.61718561 L11.9430914,8.57949028 L12.0496458,8.65069256 L17.8248934,12.4914277 L12.053908,14.0034292 L9.95265555,12.608702 L6.97765718,13.3877388 Z M5.05967828,12.3322696 C5.35257499,12.5289682 5.65559118,12.7107052 5.96752163,12.8767577 L10.400184,11.7082025 L12.5014364,13.107118 L15.7108544,12.2694441 L11.082132,9.19936901 L7.67239176,8.78053203 L7.49764257,10.3972428 C7.55245854,10.4208673 7.60520334,10.4488843 7.65534306,10.4810102 C8.11992016,10.7909495 7.91959792,11.193033 7.20781465,11.3773213 C6.4945136,11.5665257 5.73514353,11.4889188 5.07672699,11.1595261 C4.61214988,10.8495867 4.81247212,10.4475032 5.50294452,10.2590266 C5.65562357,10.2223056 5.81093465,10.197102 5.96752163,10.1836359 L6.13800864,8.59624376 L2.30205085,8.12714634 C2.18697212,9.55119207 3.06071806,11.0171215 5.03836741,12.3155161 L5.05967828,12.3322696 Z M7.5274778,3.24769552 C5.49015799,4.04348578 4.03249403,5.03194105 3.18005897,6.11254046 L9.06612309,6.83294007 L10.2510078,5.05707127 L7.5274778,3.24769552 Z" id="Shape"></path>
                        </g>
                    </g>
                </g>
                <g id="Cube" transform="translate(181.200000, 21.575342)">
                    <g id="Btm" filter="url(#filter-2)" transform="translate(13.200000, 91.095890)">
                        <polygon id="Shape" fill="#42A5F5" fill-rule="nonzero" points="113.46 0 187.08 49.7910959 74.652 79.8767123 1.044 30.0856164"></polygon>
                        <polygon id="Shape" fill="#90CAF9" fill-rule="nonzero" points="187.08 49.7910959 186.036 103.80137 73.608 133.898973 74.652 79.8767123"></polygon>
                        <polygon id="Shape" fill="#64B5F6" fill-rule="nonzero" points="74.652 79.8767123 73.608 133.898973 0 84.0958904 1.044 30.0856164"></polygon>
                        <path d="M108.036195,94.9076103 L112.219788,93.7850595 C113.838513,93.361636 115.050528,93.707761 115.855869,94.8234451 C116.144357,95.1936011 116.326135,95.614215 116.401209,96.0852996 C116.459876,96.5607864 116.48738,97.4021272 116.483722,98.6093473 C116.479833,99.8930429 116.430635,100.801358 116.336127,101.334319 C116.291599,101.602797 116.225279,101.849829 116.137166,102.075421 C116.043601,102.297018 115.930872,102.531941 115.798976,102.780197 C115.44727,103.436752 114.959149,104.031656 114.3346,104.564929 C113.715436,105.124047 112.957426,105.523926 112.060547,105.764579 L108,106.854113 L108.036195,94.9076103 Z M109.818079,104.655179 L111.983704,104.074094 C113.000897,103.801158 113.740221,103.256197 114.201701,102.439194 C114.404823,102.128162 114.534322,101.768663 114.590202,101.360686 C114.640596,100.95964 114.667406,100.22653 114.670633,99.1613361 C114.673778,98.1234545 114.651419,97.3871642 114.603557,96.9524429 C114.539289,96.5221238 114.384532,96.2006908 114.139281,95.9881343 C113.638255,95.4293926 112.928343,95.2842102 112.009522,95.5525825 L109.843897,96.1336676 L109.818079,104.655179 Z M118.819533,92.0142019 L126.456643,89.9649964 L126.451454,91.6774924 L120.627236,93.2402592 L120.616561,96.7635763 L125.587655,95.4297218 L125.582789,97.0356989 L120.611695,98.3695534 L120.596229,103.474266 L118.783339,103.960705 L118.819533,92.0142019 Z M131.923258,99.6817606 L131.890446,99.6905649 C131.730974,100.022634 131.484237,100.301701 131.150228,100.527775 C130.821671,100.757845 130.367554,100.950649 129.787864,101.106193 C128.83633,101.350594 128.104286,101.295949 127.59171,100.942256 C127.051758,100.606825 126.782919,100.064934 126.785186,99.3165667 C126.787354,98.6009747 127.024304,97.9452016 127.496042,97.3492278 C127.967813,96.7423289 128.657614,96.3116296 129.565464,96.0571172 L131.936167,95.421005 L131.938873,94.5278851 C131.952078,93.7765831 131.370762,93.5696051 130.194909,93.906945 C129.768344,94.0214017 129.431887,94.1553447 129.185527,94.308778 C128.92818,94.4815337 128.725309,94.7106249 128.576907,94.9960586 L127.234698,94.3328156 C127.888064,93.3060404 128.849078,92.6333702 130.117768,92.3147849 C131.189682,92.0162506 132.04492,91.9887177 132.683509,92.2321852 C133.322065,92.4865778 133.645235,93.1312378 133.653028,94.1661845 L133.635427,99.9755609 L131.920974,100.435587 L131.923258,99.6817606 Z M131.931897,96.8303319 L129.881116,97.3806019 C128.885732,97.6695177 128.392515,98.1429845 128.40145,98.8010164 C128.400573,99.0905307 128.528343,99.3018578 128.784763,99.4350041 C129.030179,99.5929353 129.437258,99.5955963 130.006011,99.4429873 C130.722387,99.2616838 131.228498,99.0412839 131.524358,98.781781 C131.792875,98.529615 131.928099,98.0839805 131.930035,97.4448639 L131.931897,96.8303319 Z M136.087773,87.3807509 L137.802226,86.9207252 L137.789069,91.2634184 C138.1017,90.8793375 138.444238,90.5418164 138.816694,90.2508449 C139.161773,89.9781355 139.553058,89.7830879 139.99056,89.6656964 C141.035014,89.4127368 141.796771,89.5794852 142.275856,90.1659465 C142.510202,90.3705128 142.670461,90.6795535 142.756638,91.0930779 C142.837362,91.5026072 142.876176,92.2181081 142.873081,93.2396021 C142.870036,94.2447084 142.826836,94.9767574 142.743481,95.4357711 C142.65459,95.9181023 142.492163,96.3246429 142.256194,96.655405 C142.020044,97.046255 141.710268,97.3913592 141.326858,97.690728 C140.9489,97.994092 140.494676,98.2224017 139.964171,98.375664 C139.067358,98.5944665 138.335554,98.4606159 137.768738,97.9741084 L137.766032,98.8672283 L136.051578,99.327254 L136.087773,87.3807509 Z M139.468575,91.5168604 C139.08576,91.619578 138.782008,91.7802227 138.557308,91.9987993 C138.321671,92.2203108 138.148778,92.4741062 138.038624,92.7601932 C137.93394,93.0448128 137.864737,93.34174 137.831014,93.6509838 C137.797291,93.9602275 137.779934,94.2787207 137.778941,94.6064727 C137.77803,94.9069121 137.79351,95.2084074 137.825379,95.5109675 C137.857232,95.8189901 137.924721,96.0874267 138.02785,96.3162853 C138.136448,96.5436766 138.308083,96.7050276 138.542761,96.8003431 C138.766484,96.904056 139.069748,96.9045536 139.452563,96.8018361 C139.857252,96.6932489 140.177403,96.5309333 140.413023,96.3148844 C140.648661,96.0933729 140.816068,95.8465074 140.915251,95.5742802 C141.025405,95.2881932 141.100109,94.9788737 141.139367,94.6463124 C141.151231,94.3374757 141.157652,94.0219173 141.158628,93.6996278 C141.159654,93.3609506 141.155187,93.0319396 141.145226,92.7125849 C141.107854,92.4224173 141.034871,92.1636417 140.926273,91.9362505 C140.828613,91.7059244 140.66243,91.5485685 140.42772,91.4641781 C140.192976,91.3907126 139.873264,91.4082732 139.468575,91.5168604 Z M144.998576,88.4283671 L146.713029,87.9683414 L146.710298,88.8696551 L146.743111,88.8608508 C147.308431,88.0378175 148.047722,87.5037814 148.961008,87.2587266 C149.644572,87.0862274 150.239998,87.144782 150.747303,87.434392 L149.495935,89.2520269 C149.135856,89.0648231 148.761681,89.0233143 148.373398,89.1274993 C147.935896,89.2448908 147.56086,89.4874295 147.248279,89.8551228 C146.897433,90.2276253 146.715601,90.7267009 146.702776,91.3523646 L146.687261,96.473465 L144.972808,96.9334908 L144.998576,88.4283671 Z M151.786993,86.6068847 L153.501446,86.1468589 L153.475678,94.6519826 L151.761225,95.1120083 L151.786993,86.6068847 Z M151.797419,83.1655052 L153.511872,82.7054795 L153.506684,84.4179754 L151.792231,84.8780012 L151.797419,83.1655052 Z M162.212406,90.9322923 C161.839238,91.4581528 161.400691,91.9224083 160.896753,92.3250727 C160.392781,92.7386622 159.809927,93.0396923 159.148172,93.2281721 C158.141916,93.4981726 157.259757,93.3937499 156.501665,92.9149008 C155.71623,92.4433888 155.314898,91.4458277 155.297657,89.9221876 C155.324216,88.3704208 155.732292,87.1420325 156.521898,86.2369859 C157.284126,85.3502013 158.168338,84.7772799 159.17456,84.5182045 C159.836249,84.3515749 160.418252,84.3318611 160.920585,84.4590625 C161.422901,84.5917264 161.859313,84.8321273 162.229833,85.1802723 L160.96315,86.6417838 C160.532855,86.1841419 159.956809,86.0412459 159.234997,86.2130918 C157.780368,86.5815685 157.039413,87.664581 157.01211,89.4621619 C157.02859,91.2370785 157.764207,91.9157069 159.218985,91.4980675 C159.940897,91.2934464 160.518738,90.8436662 160.952525,90.1487134 L162.212406,90.9322923 Z" id="DFabric" fill="#FFFFFF"></path>
                    </g>
                    <g id="Top" transform="translate(13.200000, 27.568493)" fill-rule="nonzero">
                        <polygon id="Shape" fill="#FFAB91" points="113.46 0 187.08 49.7910959 74.652 79.8767123 1.044 30.0856164"></polygon>
                        <polygon id="Shape" fill="#FF7043" points="186.036 103.80137 73.608 133.898973 74.652 79.8767123 187.08 49.7910959"></polygon>
                        <polygon id="Shape" fill="#FF8A65" points="74.652 79.8767123 73.608 133.898973 0 84.0958904 1.044 30.0856164"></polygon>
                    </g>
                    <g id="Brain" fill-rule="nonzero">
                        <g id="Shape" opacity="0.938169643">
                            <use fill="black" fill-opacity="1" filter="url(#filter-4)" xlink:href="#path-3"></use>
                            <use fill="#BBDB93" xlink:href="#path-3"></use>
                        </g>
                        <g id="Asset-48" filter="url(#filter-5)" transform="translate(67.200000, 27.568493)" fill="#FFFFFF">
                            <path d="M11.323,10.5814524 C12.2911442,10.2964086 13.3315374,10.405561 14.22075,10.8854686 C14.99125,11.409052 14.48875,11.9073007 13.61775,12.1437578 C12.6470584,12.4191115 11.6082871,12.3040747 10.72,11.8228518 C9.9495,11.3161582 10.443625,10.8179094 11.323,10.5814524 Z" id="Shape"></path>
                            <g id="Group">
                                <path d="M35.652375,5.53140567 C36.6148596,5.25751605 37.6453105,5.37262953 38.525,5.85231164 C39.287125,6.36745019 38.793,6.86569894 37.913625,7.10215598 C36.9450018,7.38178087 35.9066627,7.27284397 35.015875,6.79813979 C34.28725,6.27455635 34.773,5.7763076 35.652375,5.53140567 Z" id="Shape"></path>
                                <path d="M20.761625,6.4941236 C21.7337504,6.21300066 22.7762681,6.3250902 23.66775,6.80658468 C24.429875,7.33016812 23.93575,7.82841687 23.056375,8.06487391 C22.0870662,8.34642334 21.0469733,8.2342713 20.158625,7.75241283 C19.3965,7.22882939 19.890625,6.75591532 20.761625,6.4941236 Z" id="Shape"></path>
                                <path d="M25.661,7.26260897 L33.1985,6.69680106 C33.318681,6.88661437 33.4752935,7.05027647 33.659125,7.17816002 C34.1485819,7.47647039 34.6877776,7.68250243 35.250375,7.7861924 L34.05275,9.60184465 C33.2979193,9.56214897 32.5414372,9.63615151 31.80825,9.82141189 C31.632375,9.87208126 31.464875,9.93119552 31.314125,9.99030978 L25.451625,7.9297556 C25.6082962,7.74523022 25.6838696,7.50442523 25.661,7.26260897 Z" id="Shape"></path>
                                <path d="M50.73575,8.64757161 C51.69472,8.37518292 52.7209926,8.48713902 53.6,8.96003269 C54.3705,9.48361613 53.868,9.97341999 52.997,10.209877 C52.0291912,10.4986233 50.9873785,10.389322 50.09925,9.90586083 C49.36225,9.3822774 49.856375,8.88402864 50.73575,8.64757161 Z" id="Shape"></path>
                                <path d="M32.71275,10.454779 C33.6837161,10.1701674 34.7265304,10.2792586 35.618875,10.7587951 C36.381,11.2823786 35.886875,11.7806273 35.015875,12.0170844 C34.044513,12.2972062 33.0033961,12.1882926 32.10975,11.7130682 C31.347625,11.1894847 31.825,10.691236 32.71275,10.454779 Z" id="Shape"></path>
                                <path d="M20.1,8.68979608 C20.5837239,8.80785173 21.0770855,8.88134295 21.574,8.90936333 L21.62425,11.6370641 C21.2176515,11.6730306 20.8144384,11.7407936 20.41825,11.8397416 C20.0837039,11.9321815 19.7606065,12.062499 19.455125,12.2282067 L16.205625,11.6286192 C16.306125,11.2570439 16.147,10.8601339 15.62775,10.5138932 L15.435125,10.3956647 L20.1,8.68979608 Z" id="Shape"></path>
                                <path d="M40.3005,6.97548257 L48.298625,8.87558375 C47.963625,9.33160803 48.0725,9.84674658 48.72575,10.2858811 C48.7934949,10.3288679 48.863378,10.368329 48.935125,10.4041096 L46.766,12.363325 C45.6537157,12.1674106 44.5133214,12.2047827 43.416,12.4731087 C43.1249657,12.5531166 42.8439702,12.6664528 42.5785,12.8109044 L37.5535,11.5526152 C37.70425,11.1641501 37.5535,10.7503502 37.00075,10.3872198 C36.5780081,10.1215253 36.1135637,9.93019923 35.62725,9.82141189 L36.85,7.96353518 C37.5217791,7.97229667 38.1918296,7.89280932 38.84325,7.72707814 C39.390075,7.62160356 39.8956516,7.36084586 40.3005,6.97548257 Z" id="Shape"></path>
                                <path d="M26.054625,12.8024595 L30.6525,12.0424191 L30.70275,12.0930884 C31.1674306,12.3768367 31.6775424,12.5768691 32.21025,12.684231 L29.186875,16.3324253 C28.3105644,16.0834452 27.3986802,15.9863558 26.490125,16.0452989 L25.125,14.4745486 C26.13,14.0523039 26.490125,13.402047 26.054625,12.8024595 Z" id="Shape"></path>
                                <path d="M33.85175,12.8784636 C34.5505174,12.9080458 35.2498967,12.8369555 35.92875,12.6673412 C36.2838187,12.5770937 36.6248301,12.4378457 36.942125,12.2535414 L41.875,13.4527164 C41.7240209,13.7431302 41.7534073,14.095417 41.950375,14.35632 L30.610625,16.7884496 L33.85175,12.8784636 Z" id="Shape"></path>
                                <path d="M50.25,10.8854686 C50.8474351,11.0129112 51.45673,11.0751986 52.067375,11.0712562 L52.1595,17.3458126 C51.4119076,17.2444218 50.6542174,17.2444218 49.906625,17.3458126 L48.0725,15.1416952 C49.36225,14.6265567 49.638625,13.7567326 48.62525,13.0642512 C48.4793678,12.9663543 48.3252328,12.881579 48.164625,12.8109044 L50.25,10.8854686 Z" id="Shape"></path>
                                <path d="M20.31775,14.5589975 C21.4029291,14.8867844 22.5446918,14.9788877 23.66775,14.8292341 L24.965875,16.2817559 C23.852,16.594217 23.290875,17.1262453 23.36625,17.7004981 L14.162125,17.7004981 C14.1811226,17.4431746 14.0824064,17.1912138 13.894125,17.0164617 L20.31775,14.5589975 Z" id="Shape"></path>
                                <path d="M57.377125,6.26611146 C67.134,12.1775374 67.38525,13.0726961 68.32325,16.2902008 C68.515875,16.9235679 68.733625,17.6582737 69.051875,18.5365427 C70.509125,22.5394225 73.239375,23.9243851 75.366625,25.0306663 C75.9802745,25.3300928 76.575928,25.665653 77.1505,26.0356087 C77.9407953,26.6323299 78.7815235,27.1579315 79.663,27.606359 C79.855625,27.6908079 79.972875,27.8090364 79.956125,27.91882 C79.939375,28.0286037 79.805375,28.1383873 79.587625,28.1975016 L51.37225,35.7979063 C51.132507,35.853528 50.883368,35.853528 50.643625,35.7979063 C50.4484553,35.7826988 50.2647343,35.6990356 50.124375,35.5614493 C49.1815847,34.4639695 47.9226553,33.6904992 46.523125,33.348887 C45.8087489,33.1849486 45.0703785,33.1563128 44.345625,33.264438 C43.8647033,33.3288657 43.3889241,33.4276377 42.921875,33.5600093 C41.5550988,33.9618699 40.217496,34.4584866 38.918625,35.0463107 C38.0079134,35.4750807 37.0674223,35.8363532 36.104625,36.1272572 C35.2148316,36.401301 34.2641684,36.401301 33.374375,36.1272572 C32.2675152,35.6526637 31.2122459,35.0640259 30.225375,34.3707192 C28.475,33.2982176 25.9625,31.7105775 24.0865,31.4910103 C22.6318884,31.55617 21.1912121,31.8058528 19.7985,32.234161 C17.47025,32.8084138 15.049875,33.4080012 13.324625,32.9435321 C12.3291952,32.8075455 11.6208835,31.8988745 11.725,30.8914228 C11.725,30.8407534 12.051625,26.3734044 11.599375,24.6844256 C11.498875,24.2875156 10.23425,23.7470423 8.768625,23.1305651 C4.87425,21.4415862 -1.005,18.9756771 0.1675,13.8411815 C1.1725,9.36538761 5.401875,6.41811955 14.28775,4.01976961 C17.36975,3.1752802 20.795125,2.47435399 24.03625,1.82409714 C40.024125,-1.37651775 53.801,4.09577366 57.377125,6.26611146 Z M53.95175,10.8432441 C55.685375,10.37033 56.171125,9.35694271 55.032125,8.58001245 C53.4245087,7.7486844 51.5677086,7.55001632 49.822875,8.02264944 C49.5924709,8.07939157 49.3680824,8.15858297 49.152875,8.25910648 L40.526625,6.21544209 C40.4369889,5.90146901 40.2297534,5.6349629 39.94875,5.47229141 C38.3382949,4.64040228 36.478693,4.4417538 34.731125,4.91492839 C34.0659806,5.00774898 33.4733514,5.38662382 33.106375,5.95365037 L25.200375,6.55323786 C25.1597403,6.50687588 25.1148765,6.46446513 25.066375,6.42656445 C23.4463955,5.61293873 21.5859499,5.42955044 19.840375,5.9114259 C18.098375,6.38433998 17.612625,7.39772727 18.751625,8.17465753 L14.1035,9.9565302 C12.885549,9.67347203 11.619701,9.67347203 10.40175,9.9565302 C8.65975,10.4294443 8.174,11.4428316 9.313,12.2282067 C9.72273003,12.4782605 10.1694407,12.6607167 10.63625,12.76868 L9.2125,16.0452989 C8.93023854,16.0808025 8.6505058,16.1343953 8.375,16.2057519 C6.633,16.6786659 6.14725,17.6920532 7.28625,18.4689835 C8.89693725,19.3000865 10.7562434,19.4987034 12.503875,19.0263465 C12.9360465,18.9200511 13.3449471,18.7339375 13.709875,18.4774284 L23.83525,18.4774284 L23.927375,18.5534324 C25.5366579,19.3892819 27.3977552,19.5880901 29.145,19.1107955 C29.7636882,19.0089972 30.3222895,18.6776659 30.711125,18.1818571 L47.461125,19.3725872 C47.5835071,19.5330297 47.7305271,19.6727239 47.896625,19.786387 C49.508233,20.6143654 51.3663673,20.8128572 53.11425,20.34375 C54.847875,19.8708359 55.342,18.8574486 54.203,18.0805184 C54.0941214,18.0086315 53.9792269,17.9464663 53.859625,17.8947307 L53.759125,10.9192481 L53.943375,10.9192481 L53.95175,10.8432441 Z" id="Shape"></path>
                                <path d="M23.249,8.84180417 C23.4943697,8.80416151 23.7375864,8.75342086 23.977625,8.68979608 C24.161875,8.63912671 24.321,8.58001245 24.480125,8.52089819 L30.342625,10.5814524 C30.1462391,10.7776096 30.0584926,11.0588458 30.108125,11.3330479 L25.166875,12.1775374 C24.5651014,11.9143581 23.9266863,11.7463013 23.274125,11.6792886 L23.249,8.84180417 Z" id="Shape"></path>
                                <path d="M44.3875,13.0980308 C45.3596254,12.8169079 46.4021431,12.9289974 47.293625,13.4104919 C48.05575,13.9340753 47.561625,14.4323241 46.68225,14.6687811 C45.7026362,14.9596156 44.6486526,14.8472646 43.751,14.35632 C42.988875,13.8327366 43.483,13.3344879 44.3875,13.0980308 Z" id="Shape"></path>
                                <path d="M12.252625,12.9966921 C13.0190424,13.0380794 13.7872331,12.9611888 14.530625,12.76868 C14.9191533,12.6756779 15.2898275,12.5187525 15.62775,12.3042108 L18.77675,12.8953534 C18.626,13.2584838 18.77675,13.6469489 19.1955,14.0016345 L12.91425,16.3915395 C12.2633728,16.148168 11.5804241,16.0030397 10.8875,15.9608499 L12.252625,12.9966921 Z" id="Shape"></path>
                                <path d="M31.364375,17.4471513 L42.838125,15.0065769 C44.0477324,15.4770033 45.3550825,15.6338008 46.640375,15.4626012 L48.45775,17.6582737 C47.9773147,17.7947741 47.5760507,18.1288862 47.35225,18.5787671 L31.364375,17.4471513 Z" id="Shape"></path>
                                <path d="M25.9625,16.8897883 C26.930726,16.6056588 27.9707707,16.7147746 28.86025,17.1938045 C29.622375,17.7173879 29.12825,18.2156367 28.248875,18.4520937 C27.2795662,18.7336431 26.2394733,18.6214911 25.351125,18.1396326 C24.563875,17.6160492 25.058,17.1178004 25.9625,16.8897883 Z" id="Shape"></path>
                                <path d="M49.906625,18.1058531 C50.8759338,17.8243036 51.9160267,17.9364557 52.804375,18.4183141 C53.574875,18.9334527 53.08075,19.4317014 52.201375,19.6681585 C51.2332308,19.9532022 50.1928376,19.8440498 49.303625,19.3641423 C48.575,18.8405588 49.02725,18.3423101 49.906625,18.1058531 Z" id="Shape"></path>
                            </g>
                            <path d="M21.331125,12.4646638 C22.3032504,12.1835408 23.3457681,12.2956304 24.23725,12.7771248 C24.999375,13.3007083 24.50525,13.798957 23.625875,14.0354141 C22.6565662,14.3169635 21.6164733,14.2048115 20.728125,13.722953 C19.966,13.1993696 20.460125,12.6673412 21.331125,12.4646638 Z" id="Shape"></path>
                            <path d="M9.254375,16.7884496 C10.2236838,16.5069001 11.2637767,16.6190522 12.152125,17.1009106 C12.922625,17.6244941 12.4285,18.1227428 11.549125,18.3591999 C10.5798162,18.6407493 9.53972332,18.5285973 8.651375,18.0467388 C7.880875,17.5231554 8.375,17.0249066 9.254375,16.7884496 Z" id="Shape"></path>
                        </g>
                    </g>
                </g>
                <path d="M299.396156,142.09194 L304.852122,140.513366 C306.962837,139.916897 308.523841,140.339967 309.535181,141.782591 C309.898324,142.260676 310.121665,142.807646 310.205211,143.423519 C310.26736,144.045583 310.278418,145.148224 310.238386,146.731473 C310.195818,148.41502 310.10549,149.607442 309.967399,150.308776 C309.901829,150.661993 309.808638,150.98764 309.687824,151.285725 C309.560059,151.578709 309.407062,151.889657 309.228829,152.218578 C308.753722,153.088538 308.103585,153.88112 307.278398,154.596349 C306.459438,155.345335 305.465148,155.889028 304.295497,156.227443 L299,157.759588 L299.396156,142.09194 Z M301.42104,154.829628 L304.245305,154.012484 C305.57186,153.628672 306.54617,152.895194 307.168265,151.812028 C307.440663,151.398969 307.619041,150.924224 307.703403,150.387779 C307.780452,149.860562 307.836638,148.898475 307.87196,147.50149 C307.906377,146.140325 307.898919,145.175318 307.849584,144.606439 C307.778854,144.043751 307.58764,143.626159 307.275937,143.353652 C306.642797,142.633663 305.726788,142.461333 304.527885,142.836658 L301.70362,143.653803 L301.42104,154.829628 Z M313.459073,138.023119 L315.823325,137.33907 L315.619269,145.409306 L315.662061,145.396925 L322.2849,135.469544 L325.087769,134.65859 L319.935582,142.28301 L325.215814,150.174571 L322.412945,150.985524 L318.359581,144.552448 L315.547809,148.2355 L315.427169,153.006718 L313.062917,153.690766 L313.459073,138.023119 Z M326.808784,138.640945 L329.044661,137.994039 L328.876743,144.635059 C328.857723,145.387281 329.053261,145.91385 329.463362,146.214781 C329.866332,146.517775 330.38875,146.576414 331.030631,146.390698 C331.672513,146.204983 332.202052,145.841982 332.619264,145.301684 C333.043609,144.759324 333.265288,144.112041 333.284308,143.359819 L333.452226,136.718799 L335.688102,136.071894 L335.406065,147.226227 L333.170189,147.873133 L333.200349,146.680328 L333.157557,146.692709 C332.400679,147.786426 331.430296,148.504544 330.246382,148.847086 C329.326714,149.09895 328.504359,149.002641 327.779295,148.558155 C326.989679,148.146568 326.603686,147.312417 326.621303,146.055675 L326.808784,138.640945 Z M338.953205,130.646906 L341.189082,130 L341.045074,135.695373 C341.461562,135.183731 341.915458,134.732388 342.406775,134.341328 C342.86207,133.974915 343.37499,133.709172 343.945552,133.544091 C345.306861,133.185782 346.289445,133.385074 346.893333,134.141973 C347.191134,134.404279 347.389842,134.805479 347.489463,135.345585 C347.582133,135.880591 347.611531,136.817916 347.577657,138.157589 C347.544327,139.47577 347.466927,140.436883 347.345456,141.040958 C347.216128,141.675752 346.99369,142.213025 346.678138,142.652793 C346.360592,143.171366 345.948945,143.63182 345.443182,144.034171 C344.944371,144.441621 344.34889,144.752586 343.656722,144.967074 C342.487796,145.276833 341.543079,145.119922 340.822542,144.496335 L340.792926,145.667648 L338.55705,146.314553 L338.953205,130.646906 Z M343.214792,135.985003 C342.71555,136.129448 342.317103,136.347848 342.019437,136.640208 C341.707507,136.936696 341.475969,137.273924 341.324815,137.651903 C341.180793,138.027819 341.082406,138.418973 341.029651,138.825375 C340.976896,139.231777 340.945085,139.649893 340.934216,140.079735 C340.924253,140.473756 340.935505,140.868745 340.967972,141.264714 C341.000258,141.667846 341.079897,142.018159 341.206892,142.315661 C341.341018,142.6111 341.55879,142.81833 341.860214,142.937356 C342.147192,143.067673 342.540296,143.060609 343.039538,142.916164 C343.567307,142.763464 343.98706,142.542456 344.298808,142.253133 C344.610738,141.956645 344.834964,141.628644 344.971491,141.26912 C345.122645,140.89114 345.228527,140.483596 345.289138,140.046474 C345.313546,139.641161 345.331094,139.227172 345.341781,138.804495 C345.353012,138.360325 345.356839,137.928972 345.353262,137.510421 C345.313301,137.130844 345.226258,136.793341 345.092131,136.497902 C344.972269,136.198336 344.761448,135.996207 344.459662,135.891509 C344.157514,135.801139 343.742561,135.832303 343.214792,135.985003 Z M352.00136,137.73107 C351.978717,138.626573 352.218257,139.23286 352.719988,139.54995 C353.185878,139.884521 353.807509,139.939344 354.584899,139.714422 C355.490665,139.452357 356.309284,138.856375 357.040781,137.926457 L358.621125,138.845308 C357.45634,140.39129 356.107457,141.378929 354.574435,141.808254 C353.98961,141.977462 353.42123,142.056573 352.86928,142.045589 C352.593487,142.032934 352.325644,141.985977 352.065744,141.904718 C351.791037,141.849079 351.534979,141.756043 351.297563,141.62561 C350.837356,141.346288 350.470471,140.876406 350.196897,140.215951 C349.89407,139.592406 349.757151,138.707525 349.786133,137.561281 C349.814029,136.458021 349.976287,135.500801 350.272912,134.689594 C350.5699,133.864058 350.941349,133.173443 351.38727,132.617728 C351.840505,132.052785 352.344143,131.594161 352.898199,131.241842 C353.445124,130.891587 353.982462,130.640114 354.510232,130.487414 C355.779368,130.134438 356.842124,130.242975 357.698531,130.813027 C358.56884,131.393279 358.992553,132.41564 358.969683,133.880138 L358.922948,135.728448 L352.00136,137.73107 Z M356.733806,134.527044 C356.727196,133.668451 356.511983,133.080015 356.088161,132.761719 C355.670927,132.462852 355.127114,132.410404 354.456704,132.604373 C353.786295,132.798343 353.231794,133.168566 352.793185,133.715054 C352.361166,134.28097 352.112804,135.003532 352.048094,135.88276 L356.733806,134.527044 Z" id="DKube" fill="#FFFFFF"></path>
            </g>
        </g>
    </g>
</svg>